<?xml version="1.0" standalone="no"?>
<!DOCTYPE svg PUBLIC "-//W3C//DTD SVG 20010904//EN"
 "http://www.w3.org/TR/2001/REC-SVG-20010904/DTD/svg10.dtd">
<svg version="1.0" xmlns="http://www.w3.org/2000/svg"
 width="300.000000pt" height="300.000000pt" viewBox="0 0 300.000000 300.000000"
 preserveAspectRatio="xMidYMid meet">
<metadata>
Created by potrace 1.11, written by Peter Selinger 2001-2013
</metadata>
<g transform="translate(0.000000,300.000000) scale(0.100000,-0.100000)"
fill="#000000" stroke="none">
<path d="M2250 2325 c-81 -44 -155 -116 -176 -172 -22 -56 -15 -174 12 -221
17 -30 22 -32 54 -27 82 15 164 79 198 154 21 46 25 68 24 140 -2 102 -12 155
-32 158 -8 2 -44 -13 -80 -32z"/>
<path d="M1531 2300 c-73 -39 -116 -83 -151 -154 -26 -51 -30 -70 -30 -140 0
-103 13 -130 63 -134 79 -7 167 63 213 168 14 34 19 67 19 140 0 162 -12 174
-114 120z"/>
<path d="M825 1919 c-4 -5 -18 -44 -31 -86 -19 -59 -24 -98 -24 -172 0 -107
15 -152 68 -212 34 -39 124 -89 167 -92 26 -2 32 4 59 58 24 48 31 76 34 141
4 72 1 89 -21 137 -31 67 -91 135 -173 193 -67 48 -70 49 -79 33z"/>
<path d="M1620 1783 c-90 -95 -246 -286 -262 -321 -2 -4 -57 -43 -123 -86
-299 -198 -459 -333 -952 -809 l-281 -272 -1 -147 -1 -148 93 0 93 0 84 123
c168 246 403 533 492 601 76 59 249 165 358 221 170 86 344 146 645 220 l100
25 -140 -5 c-180 -6 -334 -33 -548 -97 -38 -11 -70 -18 -73 -16 -7 7 188 170
356 297 279 211 386 275 595 351 100 37 101 38 92 46 -12 13 -343 -98 -511
-172 -55 -24 -102 -42 -104 -39 -6 5 94 176 152 260 81 117 76 115 -64 -32z"/>
<path d="M2009 1551 c-86 -18 -219 -112 -219 -154 0 -20 118 -85 168 -93 25
-4 76 -4 114 -1 84 7 189 55 263 121 l50 43 -54 28 c-30 15 -75 33 -100 41
-57 18 -174 26 -222 15z"/>
<path d="M1440 896 c-69 -20 -127 -53 -171 -97 l-41 -41 38 -40 c65 -67 192
-118 291 -118 52 0 163 27 228 55 45 19 165 97 165 106 0 15 -135 93 -202 117
-87 30 -235 39 -308 18z"/>
</g>
</svg>
